<svg width="96" height="96" viewBox="0 0 96 96" fill="none" xmlns="http://www.w3.org/2000/svg">
<g clip-path="url(#clip0_1_2)">
<path d="M0.25 0.25H95.75V95.75H0.25V0.25Z" stroke="black" stroke-width="0.5"/>
<path d="M32 35.5H31.5V36V76V76.5H32H64H64.5V76V36V35.5H64H32ZM61.6464 16.3536L61.7929 16.5H62H75.5V23.5H20.5V16.5H34H34.2071L34.3536 16.3536L38.2071 12.5H57.7929L61.6464 16.3536ZM32 83.5C27.8761 83.5 24.5 80.1239 24.5 76V28.5H71.5V76C71.5 80.1239 68.1239 83.5 64 83.5H32Z" fill="black" stroke="black"/>
</g>
<defs>
<clipPath id="clip0_1_2">
<rect width="96" height="96" fill="white"/>
</clipPath>
</defs>
</svg>
