<svg width="24" height="24" viewBox="0 0 24 24" fill="none" xmlns="http://www.w3.org/2000/svg">
<path d="M18.1 14.9C18.1 14.7 18.1 14.5 18.1 14.3C18.1 11.9 16.2 10 13.9 10C13.6 10 13.3 10 13 10.1V8H15L12 4L9 8H11V9.5C10.6 9.3 10.1 9.2 9.7 9.2C8.1 9.2 6.8 10.4 6.8 12C6.8 12.3 6.9 12.6 7 12.9C5.4 13.1 4 14.7 4 16.4C4 18.3 5.5 20 7.3 20H17.6C19 20 20 18.6 20 17.4C20 16.2 19.2 15.2 18.1 14.9ZM17.6 19H7.3C6.1 19 5 17.8 5 16.5C5 15.2 6.1 14 7.3 14C7.4 14 7.6 14 7.7 14L9 14.3L8.2 13.1C8 12.8 7.8 12.4 7.8 12C7.8 11 8.6 10.2 9.6 10.2C10.1 10.2 10.6 10.4 10.9 10.8V14H12.9V11.2C13.2 11.1 13.5 11.1 13.8 11.1C15.6 11.1 17 12.6 17 14.4C17 14.7 17 15 16.9 15.3L16.7 15.9H17.5C18.2 15.9 18.9 16.6 18.9 17.4C19 18.1 18.4 19 17.6 19Z" fill="#1C2E45" fill-opacity="0.6"/>
</svg>
